<svg xmlns="http://www.w3.org/2000/svg" viewBox="0 0 45 33" width="45" height="33"><style>.a{fill:#333e48}</style>
<path fill-rule="evenodd" class="a" d="m1.1 0.5c6.8 0 14.7 0 22 0 1 0 2.3-0.2 3 0.1 2 0.8 1.1 3.8 1.4 6.1 2.8 0.3 7.2-0.7 9.5 0.3 1.6 0.8 2.7 2.7 3.9 4.3 1.2 1.6 2.8 3.3 3.1 5.4 0.2 1.3 0 3.3 0 5 0 1.5 0.2 3.5 0 4.8-0.4 1.3-1.6 1.8-3.4 1.8-0.5 2.4-2.5 4.5-5.2 4.4-2.5-0.1-4.2-2.1-4.8-4.4-4.4-0.2-9.2-0.2-13.6 0-0.4 1.6-1.2 3-2.5 3.7-3.2 1.8-6.9-0.4-7.4-3.7-2.5-0.3-5.2 0.4-6-1.6-0.4-1.1-0.1-2.8-0.1-4.2 0-1.5-0.1-3 0.1-4.3q0.4 0 0.8 0c0.4 2.4 0 5.6 0.2 8.2 0.7 1.2 3.3 0.5 4.9 0.7 0.5-2.6 2.8-4.7 5.6-4.4 2.3 0.2 3.8 2 4.4 4.3 2.9 0.1 6.3 0.1 9.2 0 0.3-6.1 0.2-13 0.2-19.5 0-1.6 0.4-5.4-0.7-5.9-0.7-0.2-2 0-3.1 0-7.1 0-14.5 0-21.6 0q0-0.5 0-0.9c0-0.1 0-0.2 0.1-0.2zm26.3 8.2c0.1 6.1 0 12.4 0.1 18.3 0.9 0.2 2.1 0 3.1 0.1 0.4-0.6 0.4-1.2 0.6-1.7 0.9-1.9 3-3 5.1-2.7 2.3 0.3 3.8 2.3 4.3 4.4 2.9 0.5 2.3-2 2.3-4.6 0-1.5 0.1-2.9 0-3.9-1.4-0.3-2.8-0.2-4.4-0.2-1.5 0-3.2 0.3-4.4 0-3-1-1-7.3-1.8-10.6-1.6 0-4.4-0.6-4.9 0.9zm12.7 3.3c-1-1.4-2.3-3.7-3.9-4.2-0.8-0.2-2.2 0-2.5 0.1-0.3 0.8-0.2 2.8-0.2 4.4 0 1.7-0.3 3.4 0.2 4.3 0.4 0.9 1.5 0.7 2.7 0.7 2.2 0 4.6 0.1 6.4-0.1 0-2-1.4-3.5-2.7-5.2zm-27.8 19.6c2.4-0.2 4.8-3.3 3-6.1-0.6-0.8-2-1.9-3.9-1.6-4.6 0.7-4 8 0.9 7.7zm19.5-3.9c0 2.1 1.8 4 4.1 3.9 1.9-0.2 3.6-1.8 3.6-3.9 0-2.4-1.9-4.2-4.5-3.8-1.8 0.2-3.3 1.6-3.2 3.8zm-30.7-23.7q7.5 0 15 0 0 0.5 0 1.1-7.6 0-15.1 0 0-0.5 0-0.9c0-0.1 0-0.2 0.1-0.2zm0 3.6q6.1 0 12.3 0 0 0.5 0 1.1-6.2 0-12.4 0c0-0.4-0.1-0.9 0.1-1.1zm0 3.5q4.8 0 9.7 0 0 0.6 0 1.1-4.9 0-9.8 0c0-0.3-0.1-0.8 0.1-1.1zm7.1 3.5q0 0.6 0 1.1-3.6 0-7.2 0c0-0.3-0.1-0.8 0.1-1.1q3.5 0 7.1 0z"></path></svg>