<svg xmlns="http://www.w3.org/2000/svg" width="39px" height="39px" xmlns:xlink="http://www.w3.org/1999/xlink"><path fill-rule="evenodd" fill="rgb(51, 62, 72)" d="M38.430,18.709 C37.966,24.410 34.759,28.179 31.240,30.624 C28.045,32.845 23.692,34.567 18.173,34.119 C17.553,34.068 16.765,33.751 16.119,33.831 C15.559,33.903 14.925,34.650 14.521,34.921 C12.977,35.958 11.136,36.895 9.272,37.555 C7.523,38.174 5.069,38.857 2.481,38.587 C1.649,38.500 0.640,38.384 0.541,37.899 C0.389,37.150 1.798,36.471 2.310,36.066 C3.739,34.941 4.791,33.871 5.563,32.171 C5.909,31.408 6.415,30.180 6.305,29.363 C6.239,28.881 5.165,27.983 4.821,27.588 C3.334,25.881 2.039,23.847 1.340,21.345 C0.317,17.681 1.032,13.212 2.424,10.461 C4.514,6.332 8.126,3.217 12.981,1.582 C14.626,1.027 16.567,0.666 18.516,0.550 C24.834,0.176 29.604,2.474 32.838,5.306 C35.897,7.984 38.959,12.208 38.430,18.709 ZM32.039,6.165 C28.910,3.472 24.526,1.375 18.516,1.697 C11.248,2.085 5.831,6.124 3.395,11.263 C2.001,14.201 1.589,18.083 2.653,21.516 C3.370,23.833 4.553,25.714 6.076,27.245 C6.452,27.621 7.400,28.406 7.503,28.906 C7.792,30.314 7.012,31.936 6.533,32.916 C5.765,34.484 4.771,35.585 3.623,36.467 C3.369,36.663 2.878,36.852 2.995,37.211 C7.959,37.380 11.527,35.604 14.521,33.489 C14.960,33.178 15.432,32.619 15.834,32.571 C16.419,32.504 17.188,32.798 17.774,32.858 C22.965,33.392 27.225,31.845 30.270,29.822 C33.664,27.570 36.693,24.088 37.232,18.766 C37.824,12.916 34.961,8.679 32.039,6.165 ZM30.289,23.129 C30.037,23.293 29.736,23.375 29.386,23.375 C29.029,23.375 28.724,23.293 28.471,23.129 C28.218,22.965 28.023,22.745 27.887,22.468 C27.751,22.191 27.683,21.880 27.683,21.533 L27.683,21.114 C27.683,20.768 27.752,20.455 27.889,20.177 C28.027,19.899 28.223,19.678 28.478,19.516 C28.733,19.353 29.035,19.272 29.386,19.272 C29.739,19.272 30.042,19.353 30.293,19.516 C30.545,19.678 30.738,19.899 30.873,20.177 C31.008,20.455 31.075,20.768 31.075,21.114 L31.075,21.533 C31.075,21.880 31.007,22.191 30.871,22.468 C30.734,22.745 30.541,22.965 30.289,23.129 ZM30.365,21.114 C30.365,20.774 30.284,20.484 30.123,20.245 C29.961,20.005 29.715,19.886 29.386,19.886 C29.059,19.886 28.811,20.005 28.642,20.245 C28.473,20.484 28.388,20.774 28.388,21.114 L28.388,21.533 C28.388,21.874 28.471,22.163 28.638,22.402 C28.804,22.642 29.053,22.761 29.386,22.761 C29.709,22.761 29.953,22.642 30.118,22.402 C30.283,22.163 30.365,21.874 30.365,21.533 L30.365,21.114 ZM23.459,23.249 L29.781,14.004 L30.576,14.004 L24.254,23.249 L23.459,23.249 ZM25.652,17.737 C25.400,17.900 25.099,17.981 24.749,17.981 C24.392,17.981 24.087,17.900 23.834,17.737 C23.581,17.575 23.386,17.354 23.250,17.076 C23.114,16.798 23.046,16.485 23.046,16.139 L23.046,15.719 C23.046,15.373 23.115,15.062 23.252,14.785 C23.390,14.508 23.586,14.288 23.841,14.124 C24.096,13.960 24.398,13.878 24.749,13.878 C25.102,13.878 25.405,13.960 25.656,14.124 C25.908,14.288 26.101,14.508 26.236,14.785 C26.371,15.062 26.438,15.373 26.438,15.719 L26.438,16.139 C26.438,16.485 26.370,16.798 26.234,17.076 C26.097,17.354 25.903,17.575 25.652,17.737 ZM25.728,15.719 C25.728,15.379 25.647,15.090 25.486,14.851 C25.324,14.611 25.078,14.492 24.749,14.492 C24.422,14.492 24.174,14.611 24.005,14.851 C23.836,15.090 23.751,15.379 23.751,15.719 L23.751,16.139 C23.751,16.479 23.834,16.769 24.001,17.008 C24.167,17.247 24.416,17.367 24.749,17.367 C25.072,17.367 25.316,17.247 25.481,17.008 C25.646,16.769 25.728,16.479 25.728,16.139 L25.728,15.719 ZM20.461,21.933 C20.198,22.392 19.869,22.747 19.472,22.998 C19.075,23.249 18.612,23.375 18.081,23.375 C17.587,23.375 17.149,23.271 16.767,23.064 C16.385,22.856 16.076,22.568 15.839,22.199 C15.603,21.831 15.456,21.404 15.399,20.920 L16.226,20.920 C16.306,21.413 16.505,21.819 16.821,22.138 C17.137,22.457 17.557,22.617 18.081,22.617 C18.833,22.617 19.417,22.265 19.834,21.561 C20.250,20.856 20.458,19.854 20.458,18.554 L20.400,18.554 C20.256,18.825 20.068,19.061 19.836,19.263 C19.604,19.465 19.339,19.622 19.043,19.735 C18.746,19.847 18.433,19.904 18.104,19.904 C17.592,19.904 17.123,19.774 16.697,19.513 C16.272,19.253 15.932,18.897 15.677,18.444 C15.423,17.991 15.295,17.474 15.295,16.893 C15.295,16.342 15.416,15.836 15.657,15.374 C15.898,14.912 16.237,14.544 16.673,14.268 C17.109,13.993 17.620,13.857 18.207,13.860 C18.591,13.863 18.963,13.941 19.324,14.094 C19.685,14.248 20.010,14.493 20.301,14.830 C20.592,15.167 20.822,15.614 20.993,16.171 C21.164,16.728 21.249,17.412 21.249,18.225 C21.249,18.980 21.183,19.672 21.051,20.301 C20.920,20.930 20.723,21.474 20.461,21.933 ZM19.971,15.699 C19.784,15.364 19.538,15.100 19.234,14.907 C18.930,14.714 18.588,14.618 18.207,14.618 C17.809,14.618 17.452,14.720 17.135,14.925 C16.819,15.130 16.569,15.404 16.385,15.749 C16.201,16.093 16.109,16.475 16.109,16.893 C16.109,17.311 16.201,17.691 16.385,18.033 C16.569,18.374 16.819,18.645 17.135,18.845 C17.452,19.046 17.809,19.146 18.207,19.146 C18.513,19.146 18.797,19.083 19.061,18.958 C19.324,18.833 19.553,18.663 19.746,18.446 C19.939,18.229 20.086,17.983 20.186,17.708 C20.287,17.433 20.326,17.143 20.306,16.839 C20.270,16.415 20.158,16.035 19.971,15.699 ZM12.872,21.933 C12.610,22.392 12.280,22.747 11.884,22.998 C11.487,23.249 11.023,23.375 10.493,23.375 C9.999,23.375 9.561,23.271 9.179,23.064 C8.797,22.856 8.487,22.568 8.251,22.199 C8.014,21.831 7.867,21.404 7.810,20.920 L8.637,20.920 C8.718,21.413 8.916,21.819 9.233,22.138 C9.549,22.457 9.969,22.617 10.493,22.617 C11.245,22.617 11.829,22.265 12.245,21.561 C12.662,20.856 12.870,19.854 12.870,18.554 L12.811,18.554 C12.668,18.825 12.480,19.061 12.248,19.263 C12.015,19.465 11.751,19.622 11.454,19.735 C11.158,19.847 10.845,19.904 10.515,19.904 C10.003,19.904 9.534,19.774 9.109,19.513 C8.684,19.253 8.344,18.897 8.089,18.444 C7.834,17.991 7.707,17.474 7.707,16.893 C7.707,16.342 7.828,15.836 8.069,15.374 C8.310,14.912 8.648,14.544 9.084,14.268 C9.520,13.993 10.032,13.857 10.619,13.860 C11.002,13.863 11.374,13.941 11.735,14.094 C12.096,14.248 12.422,14.493 12.713,14.830 C13.003,15.167 13.234,15.614 13.405,16.171 C13.575,16.728 13.661,17.412 13.661,18.225 C13.661,18.980 13.595,19.672 13.463,20.301 C13.331,20.930 13.134,21.474 12.872,21.933 ZM12.382,15.699 C12.195,15.364 11.949,15.100 11.645,14.907 C11.341,14.714 10.999,14.618 10.619,14.618 C10.220,14.618 9.863,14.720 9.547,14.925 C9.231,15.130 8.981,15.404 8.797,15.749 C8.612,16.093 8.520,16.475 8.520,16.893 C8.520,17.311 8.612,17.691 8.797,18.033 C8.981,18.374 9.231,18.645 9.547,18.845 C9.863,19.046 10.220,19.146 10.619,19.146 C10.924,19.146 11.209,19.083 11.472,18.958 C11.736,18.833 11.964,18.663 12.158,18.446 C12.351,18.229 12.498,17.983 12.598,17.708 C12.698,17.433 12.738,17.143 12.717,16.839 C12.681,16.415 12.570,16.035 12.382,15.699 Z"></path></svg>