<svg xmlns="http://www.w3.org/2000/svg" viewBox="0 0 38 39" width="38" height="39"><style>.a{fill:#333e48}</style>
<path fill-rule="evenodd" class="a" d="m8.7 0.2c1.4-0.4 4.6 0 6.3 0 4.3 0 7.8 0 12.4 0 1.6 0 5.2-0.4 5.7 0.4 0.5 0.6 0.3 2.7 0.3 4.2 0 3.3 0 5.5 0 8.9 0 1.2 0.2 3.5-0.3 4.1-0.8 0.8-4.4 0.4-6.1 0.4-5.7 0-10.4 0-16.2 0-1.2 0-2.4 0-2.8-0.5-0.4-0.6-0.2-3-0.2-4.3 0-2.5 0-6.2 0-8.9 0-1.7-0.4-3.9 0.9-4.3zm3.3 1c-0.9 0-2.1-0.2-2.8 0-0.6 0.2-0.4 1.3-0.4 2.2 0 4.7 0 9.4 0.1 13.6 7.6 0.2 15.7 0.2 23.3 0 0.2-5 0.2-10.6 0-15.7-6.2-0.1-13.7-0.1-20.2-0.1zm5 2.1c1.1-0.2 2.9-0.1 4.6-0.1 1 0 3.1-0.2 3.8 0.6 0.6 0.8 0.3 2.2-0.5 2.6-0.8 0.5-2.8 0.2-4.3 0.2-2.5 0-5.7 0.5-5.1-2.2 0.2-0.8 0.9-1 1.5-1.1zm3.7 2.3c0.9 0 3.8 0.4 3.9-0.6 0.2-1.1-2-0.7-3.5-0.7-1.6 0-3-0.1-4 0-0.4 0-0.7 0.4-0.6 0.9 0.8 0.6 2.6 0.4 4.2 0.4zm8.4 17.4c1.4-0.7 4.2-1 4.3 1 1.9-1 5.1-0.6 4.5 2.1-0.3 1.8-2.9 3.1-4.5 4.1-2.4 1.7-5.3 3.6-7.9 5.3-1.5 0.9-3 2-4.2 2.4-2.8 0.9-5.3-0.8-7.6-2q-1.2-0.6-2.6-1.4c-1-0.5-2-1.2-2.9-1.1-0.6 0-1.4 0.6-2.1 1-0.6 0.4-1.4 1.3-2 0.6 0.1-1 1.1-1.3 1.9-1.7 0.7-0.5 1.3-1.1 2.3-1.1 1.7 0 4.1 1.7 5.4 2.4 1.7 0.8 3.3 2 5.3 2.4 0.5 0.1 1 0.1 1.7-0.1 1.4-0.4 3.1-1.6 4.4-2.5 3.3-2.2 6.9-4.5 10.3-6.9 0.7-0.5 1.6-1.2 1.6-1.9-0.1-1.5-2.3-0.9-3.2-0.5-2.2 1-4.6 3-6.7 4.4-0.3 0.3-0.8 0.5-1.1 0.7-0.7 0.5-1 0.9-2.1 1-2.5 0.3-6.6 0.1-8.9-0.4-0.7-0.1-1.9-0.2-1.9-0.9 0-0.8 1.3-0.4 2.1-0.2 2.2 0.5 5.8 0.7 8.3 0.4 0.8 0 1.7-0.4 1.9-1 0.4-2-2.7-1.6-4.3-1.8-1.6-0.3-3.7-0.8-4.7-1.3-1.1-0.6-1.6-1.9-2.7-2.5-3.3-1.9-7.3 0.1-9.7 1.2q-1 0.4-1.9 0.9c-0.6 0.3-1.3 0.9-2 0.5-0.3-1 0.8-1.2 1.4-1.4 2.7-1.3 5.5-3.3 9.4-3 2.3 0.1 3.7 0.9 4.9 2.1 0.3 0.4 0.6 0.9 1.1 1.2 0.5 0.2 1.8 0.7 2.2 0.6 0.7 0 2.2-1.3 3-1.8 1.3-0.8 2.5-1.8 4.1-2 1.4-0.2 2.5 0.1 2.9 1.2zm-3 2c0.4-0.3 1.8-1 1.9-1.5 0-0.6-0.5-0.7-1.3-0.7-0.9 0.1-2 0.7-3 1.3-0.9 0.6-1.9 1.2-2.5 1.9 0.6 0.4 1.8 0.3 2.9 0.3 0.7-0.4 1.2-0.8 2-1.3zm2-0.1c-0.9 0.6-2 1.3-2.6 2 0.4 0.4 0.8 0.8 1 1.5 2.1-1.1 3.9-2.5 5.8-3.8 0.1-0.3 0-0.5-0.1-0.8-1.4-0.7-2.9 0.3-4.1 1.1z"></path></svg>