<svg xmlns="http://www.w3.org/2000/svg" viewBox="0 0 34 36" width="34" height="36"><style>.a{fill:#333e48}</style>
<path class="a" d="m31.5 9.9c-2.4 0-4.9 0-7.4 0-0.9 0-2 0.2-2.1-0.4-0.2-1.1 2.2-0.7 3.1-0.7 1.4 0 2.7 0.1 3.7-0.2-0.2-0.8-1.1-1.7-1.8-2.3-2.5-2.2-6.2-4-11.1-3.7-5 0.3-8.5 2.9-10.7 5.8-2 2.6-3.3 6.1-3.1 11.1 0 0.6 0.2 1.4-0.4 1.5-1.1 0.3-0.9-3.1-0.9-3.9 0.1-6.9 4.7-12 9.7-14.3 6.7-3 14.1-0.5 17.9 3.2 0.6 0.5 0.8 1.2 1.6 1.5 0.5-0.3 0.3-1 0.3-1.6 0-1.6-0.1-3.8 0.1-5.2 0.1 0 0.2-0.2 0.4-0.2 1.1 0 0.7 3 0.7 4.4 0 2.2 0 3.9 0 5zm-27.5 18.7c-0.4 0.7-0.2 2.3-0.2 3.7 0 0.9 0.3 3.3-0.6 3.3-0.7 0-0.5-1.1-0.5-2 0-2.4 0-5 0-7.4 2.3 0 4.8 0 7.4 0 0.9 0 1.9-0.1 1.9 0.6 0.1 0.9-2.2 0.6-3.2 0.6-0.6 0-1.3 0-1.9 0-0.6 0-1.3-0.2-1.6 0.2-0.1 0.6 0.5 0.9 0.8 1.3 2.3 2.5 6.1 4.7 10.9 4.7 4.2 0 8.4-2.1 10.8-4.5 2.5-2.6 4.3-6.3 4.3-11 0-0.7-0.5-3 0.4-3 1 0.1 0.7 3.6 0.7 4.6-0.2 3.4-1.7 6.7-3.6 9-1.9 2.3-4.2 4.1-7.4 5.2-6.7 2.2-13.1-0.4-16.6-3.8-0.5-0.5-0.8-1.2-1.6-1.5z"></path></svg>